<svg xmlns="http://www.w3.org/2000/svg" viewBox="0 0 32.998 33.122">
  <g id="link" transform="translate(0 0)">
    <path id="Path_15" data-name="Path 15" d="M27.76,5.134,24.117,1.49a4.8,4.8,0,0,0-6.956,0L7.39,11.1A4.766,4.766,0,0,0,5.9,14.574a4.51,4.51,0,0,0,1.49,3.478l2.484,2.484,2.319-2.319L9.709,15.733a1.6,1.6,0,0,1,0-2.319l9.605-9.605a1.6,1.6,0,0,1,2.319,0l3.643,3.643a1.6,1.6,0,0,1,0,2.319L20.97,14.242l2.319,2.319,4.471-4.471A5.109,5.109,0,0,0,27.76,5.134Z" transform="translate(3.871 0)" />
    <path id="Path_16" data-name="Path 16" d="M19.376,7.5,17.058,9.819,19.542,12.3a1.6,1.6,0,0,1,0,2.319L9.937,24.392a1.6,1.6,0,0,1-2.319,0L3.975,20.749a1.6,1.6,0,0,1,0-2.319L8.28,13.959,5.962,11.64,1.49,16.112A4.766,4.766,0,0,0,0,19.589a4.51,4.51,0,0,0,1.49,3.478l3.643,3.643A5.138,5.138,0,0,0,8.777,28.2a4.766,4.766,0,0,0,3.478-1.49l9.605-9.605a4.8,4.8,0,0,0,0-6.956Z" transform="translate(0 4.921)" />
  </g>
</svg>
