<svg xmlns="http://www.w3.org/2000/svg" viewBox="0 0 50.061 31.288">
  <g id="logo-symbol" transform="translate(-900 -369.887)">
    <path id="rect-grn" d="M4.662,0H7.853a4.662,4.662,0,0,1,4.662,4.662V7.853a4.662,4.662,0,0,1-4.662,4.662H4.662A4.662,4.662,0,0,1,0,7.853V4.662A4.662,4.662,0,0,1,4.662,0Z" transform="translate(918.773 369.887)" fill="#02d8c1"/>
    <path id="rect-blu" d="M4.662,0H7.853a4.662,4.662,0,0,1,4.662,4.662V26.626a4.662,4.662,0,0,1-4.662,4.662H4.662A4.662,4.662,0,0,1,0,26.626V4.662A4.662,4.662,0,0,1,4.662,0Z" transform="translate(950.06 401.175) rotate(180)" fill="#5d66e9"/>
    <path id="rect-ylw" d="M4.662,0H7.853a4.662,4.662,0,0,1,4.662,4.662V7.853a4.662,4.662,0,0,1-4.662,4.662H4.662A4.662,4.662,0,0,1,0,7.853V4.662A4.662,4.662,0,0,1,4.662,0Z" transform="translate(918.773 388.66)" fill="#ffc400"/>
    <path id="rect-red" d="M4.662,0H7.853a4.662,4.662,0,0,1,4.662,4.662V26.626a4.662,4.662,0,0,1-4.662,4.662H4.662A4.662,4.662,0,0,1,0,26.626V4.662A4.662,4.662,0,0,1,4.662,0Z" transform="translate(912.515 401.175) rotate(180)" fill="#e61c1c"/>
  </g>
</svg>
