<?xml version="1.0" encoding="utf-8"?>
<!-- Generator: Adobe Illustrator 23.0.0, SVG Export Plug-In . SVG Version: 6.00 Build 0)  -->
<svg version="1.1" id="Camada_1" xmlns="http://www.w3.org/2000/svg" xmlns:xlink="http://www.w3.org/1999/xlink" x="0px" y="0px"
	 viewBox="0 0 226.8 34.7" style="enable-background:new 0 0 226.8 34.7;" xml:space="preserve">
<style type="text/css">
	.st0{animation: fill-animation 3s forwards; fill:#02D8C1; stroke:#02D8C1;stroke-width:0.75;stroke-miterlimit:10;}
	.st1{animation: fill-animation 3s forwards; fill:#5D66E9;stroke:#5D66E9;stroke-width:0.75;stroke-miterlimit:10;}
	.st2{animation: fill-animation 3s forwards; fill:#FFC400;stroke:#FFC400;stroke-width:0.75;stroke-miterlimit:10;}
	.st3{animation: fill-animation 3s forwards; fill:#E61C1C;stroke:#E61C1C;stroke-width:0.75;stroke-miterlimit:10;}
	.st4{ enable-background:new    ;}
	.st5{animation: fill-animation 3s forwards; fill:#1D2126;stroke:#1D2126;stroke-width:0.75;stroke-linejoin:round;stroke-miterlimit:10;}
	@keyframes fill-animation
	{
		0%
		{
		fill-opacity: 0;
		}
		50%
		{
		fill-opacity: 0;
		}
		100%
		{
		fill-opacity: 1;
		}
	}
</style>
<g id="Logo" transform="translate(-900 -369.887)">
	<path id="rect-grn" class="st0" d="M926.1,371.1h3.3c2.7,0,4.8,2.2,4.8,4.8v3.3c0,2.7-2.2,4.8-4.8,4.8h-3.3c-2.7,0-4.8-2.2-4.8-4.8
		v-3.3C921.3,373.2,923.5,371.1,926.1,371.1z"/>
	<path id="rect-blu" class="st1" d="M948.8,403.4h-3.3c-2.7,0-4.8-2.2-4.8-4.8v-22.7c0-2.7,2.2-4.8,4.8-4.8l0,0h3.3
		c2.7,0,4.8,2.2,4.8,4.8c0,0,0,0,0,0v22.7C953.6,401.3,951.5,403.4,948.8,403.4z"/>
	<path id="rect-ylw" class="st2" d="M926.1,390.5h3.3c2.7,0,4.8,2.2,4.8,4.8v3.3c0,2.7-2.2,4.8-4.8,4.8h-3.3c-2.7,0-4.8-2.2-4.8-4.8
		v-3.3C921.3,392.6,923.5,390.5,926.1,390.5z"/>
	<path id="rect-red" class="st3" d="M910,403.4h-3.3c-2.7,0-4.8-2.2-4.8-4.8v-22.7c0-2.7,2.2-4.8,4.8-4.8l0,0h3.3
		c2.7,0,4.8,2.2,4.8,4.8c0,0,0,0,0,0v22.7C914.8,401.3,912.7,403.4,910,403.4z"/>
	<g class="st4">
		<path class="st5" d="M987.9,379v16.2h-4.5V386l-3,9.2h-3.9l-3-9.2v9.2H969V379h5.5l4,10.5l3.9-10.5H987.9z"/>
		<path class="st5" d="M995,382.6v2.7h5.3v3.4H995v2.9h6v3.6h-10.5V379h10.5v3.6H995z"/>
		<path class="st5" d="M1007.4,379v9.3c0,0.9,0.2,1.6,0.6,2.1c0.4,0.5,1,0.7,1.9,0.7c0.8,0,1.5-0.3,1.9-0.8c0.4-0.5,0.6-1.2,0.6-2.1
			V379h4.5v9.3c0,1.5-0.3,2.8-0.9,3.9s-1.5,1.9-2.5,2.4c-1.1,0.5-2.3,0.8-3.6,0.8s-2.5-0.3-3.6-0.8c-1-0.5-1.8-1.3-2.4-2.4
			c-0.6-1.1-0.9-2.4-0.9-3.9V379H1007.4z"/>
		<path class="st5" d="M1033.8,379v16.3h-4.5v-6.6h-5.5v6.6h-4.5V379h4.5v6.1h5.5V379H1033.8z"/>
		<path class="st5" d="M1048.4,379.8c1.3,0.7,2.3,1.7,3,3c0.7,1.3,1.1,2.7,1.1,4.3c0,1.6-0.4,3-1.1,4.3s-1.7,2.3-3,3
			c-1.3,0.7-2.7,1.1-4.2,1.1c-1.5,0-2.9-0.4-4.2-1.1s-2.3-1.7-3-3s-1.1-2.7-1.1-4.3c0-1.6,0.4-3,1.1-4.3c0.7-1.3,1.7-2.3,3-3
			s2.7-1.1,4.2-1.1C1045.7,378.7,1047.1,379.1,1048.4,379.8z M1041.5,384c-0.7,0.7-1,1.8-1,3c0,1.3,0.3,2.3,1,3
			c0.7,0.8,1.6,1.1,2.7,1.1c1.1,0,2-0.4,2.7-1.1s1-1.8,1-3c0-1.3-0.3-2.3-1-3s-1.6-1.1-2.7-1.1C1043,382.9,1042.1,383.3,1041.5,384z
			"/>
		<path class="st5" d="M1062.8,395.2l-3.3-6h-0.5v6h-4.5V379h7.2c1.3,0,2.4,0.2,3.3,0.7s1.6,1.1,2.1,1.9c0.5,0.8,0.7,1.7,0.7,2.7
			c0,1.1-0.3,2.1-0.9,3c-0.6,0.8-1.5,1.4-2.7,1.8l3.7,6.3H1062.8z M1059,386.2h2.2c1.3,0,1.9-0.6,1.9-1.7c0-0.5-0.2-1-0.5-1.3
			s-0.8-0.5-1.4-0.5h-2.2V386.2z"/>
		<path class="st5" d="M1079.8,392.5h-5.8l-0.9,2.7h-4.8l6-16.2h5.2l5.9,16.2h-4.8L1079.8,392.5z M1080,375.8l-5.8,2.3v-3l5.8-2.6
			V375.8z M1078.7,389.1l-1.7-5.3l-1.8,5.3H1078.7z"/>
		<path class="st5" d="M1095.1,395.2l-3.3-6h-0.5v6h-4.5V379h7.2c1.3,0,2.4,0.2,3.3,0.7s1.6,1.1,2.1,1.9c0.5,0.8,0.7,1.7,0.7,2.7
			c0,1.1-0.3,2.1-0.9,3c-0.6,0.8-1.5,1.4-2.7,1.8l3.7,6.3H1095.1z M1091.3,386.2h2.2c1.3,0,1.9-0.6,1.9-1.7c0-0.5-0.2-1-0.5-1.3
			c-0.3-0.3-0.8-0.5-1.4-0.5h-2.2V386.2z"/>
		<path class="st5" d="M1106.4,379v16.3h-4.5V379H1106.4z"/>
		<path class="st5" d="M1120.9,379.8c1.3,0.7,2.3,1.7,3,3c0.7,1.3,1.1,2.7,1.1,4.3c0,1.6-0.4,3-1.1,4.3s-1.7,2.3-3,3
			c-1.3,0.7-2.7,1.1-4.2,1.1c-1.5,0-2.9-0.4-4.2-1.1s-2.3-1.7-3-3s-1.1-2.7-1.1-4.3c0-1.6,0.4-3,1.1-4.3c0.7-1.3,1.7-2.3,3-3
			s2.7-1.1,4.2-1.1C1118.2,378.7,1119.6,379.1,1120.9,379.8z M1114,384c-0.7,0.7-1,1.8-1,3c0,1.3,0.3,2.3,1,3
			c0.7,0.8,1.6,1.1,2.7,1.1c1.1,0,2-0.4,2.7-1.1s1-1.8,1-3c0-1.3-0.3-2.3-1-3s-1.6-1.1-2.7-1.1C1115.6,382.9,1114.6,383.3,1114,384z
			"/>
	</g>
</g>
</svg>
