<svg xmlns="http://www.w3.org/2000/svg" viewBox="0 0 35.395 28.95">
  <path id="twitter" d="M28.107,22.029C25.8,15.64,36.18,9.566,40.456,15.4a12.2,12.2,0,0,0,4.683-1.688,7.89,7.89,0,0,1-3.048,3.828A10.786,10.786,0,0,0,46,16.571a14.072,14.072,0,0,1-3.444,3.654,31.117,31.117,0,0,1-.535,5.329,21.991,21.991,0,0,1-7,11.752A21.281,21.281,0,0,1,20.8,41.959,24.583,24.583,0,0,1,10.6,38.795s6.12.652,10.635-3.072c0,0-4.561.209-6.725-5.05a8.123,8.123,0,0,0,3.235-.186,7.3,7.3,0,0,1-5.818-7.237,8.11,8.11,0,0,0,3.281.838S9.721,19.9,13.072,14.476C13.072,14.476,18.568,21.762,28.107,22.029Z" transform="translate(-10.605 -13.044)" />
</svg>
